<svg width="400" height="260" viewBox="0 0 400 260" fill="none" xmlns="http://www.w3.org/2000/svg">
<path d="M52.3077 80.4763C59.105 80.4763 64.6154 74.9331 64.6154 68.0953C64.6154 61.2575 59.105 55.7144 52.3077 55.7144C45.5103 55.7144 40 61.2575 40 68.0953C40 74.9331 45.5103 80.4763 52.3077 80.4763Z" stroke="#9B9B9B" stroke-width="1.5" stroke-linecap="round" stroke-linejoin="round"/>
<path d="M113.846 126.905C120.644 126.905 126.154 121.362 126.154 114.524C126.154 107.686 120.644 102.143 113.846 102.143C107.049 102.143 101.539 107.686 101.539 114.524C101.539 121.362 107.049 126.905 113.846 126.905Z" stroke="#9B9B9B" stroke-width="1.5" stroke-linecap="round" stroke-linejoin="round"/>
<path d="M49.2308 173.333C56.0281 173.333 61.5385 167.79 61.5385 160.952C61.5385 154.114 56.0281 148.571 49.2308 148.571C42.4334 148.571 36.9231 154.114 36.9231 160.952C36.9231 167.79 42.4334 173.333 49.2308 173.333Z" stroke="#9B9B9B" stroke-width="1.5" stroke-linecap="round" stroke-linejoin="round"/>
<path d="M116.923 201.191C123.721 201.191 129.231 195.647 129.231 188.81C129.231 181.972 123.721 176.429 116.923 176.429C110.126 176.429 104.615 181.972 104.615 188.81C104.615 195.647 110.126 201.191 116.923 201.191Z" stroke="#9B9B9B" stroke-width="1.5" stroke-linecap="round" stroke-linejoin="round"/>
<path d="M61.5386 77.3809L104.615 105.238M61.5386 154.762L104.615 123.809M64.6155 74.2856L107.692 179.524" stroke="#9B9B9B" stroke-width="1.5" stroke-linecap="round" stroke-linejoin="round"/>
<path d="M160 130H203.077" stroke="#9B9B9B" stroke-width="1.5" stroke-linecap="round" stroke-linejoin="round"/>
<path d="M192.308 120.714L204.615 130L192.308 139.286" stroke="#9B9B9B" stroke-width="1.5" stroke-linecap="round" stroke-linejoin="round"/>
<path d="M366.154 61.9048H236.923C231.825 61.9048 227.692 66.0621 227.692 71.1905V86.6667C227.692 91.795 231.825 95.9524 236.923 95.9524H366.154C371.252 95.9524 375.385 91.795 375.385 86.6667V71.1905C375.385 66.0621 371.252 61.9048 366.154 61.9048Z" stroke="#9B9B9B" stroke-width="1.5" stroke-linecap="round" stroke-linejoin="round"/>
<path d="M366.154 114.524H236.923C231.825 114.524 227.692 118.681 227.692 123.81V139.286C227.692 144.414 231.825 148.572 236.923 148.572H366.154C371.252 148.572 375.385 144.414 375.385 139.286V123.81C375.385 118.681 371.252 114.524 366.154 114.524Z" stroke="#9B9B9B" stroke-width="1.5" stroke-linecap="round" stroke-linejoin="round"/>
<path d="M366.154 167.143H236.923C231.825 167.143 227.692 171.3 227.692 176.429V191.905C227.692 197.033 231.825 201.191 236.923 201.191H366.154C371.252 201.191 375.385 197.033 375.385 191.905V176.429C375.385 171.3 371.252 167.143 366.154 167.143Z" stroke="#9B9B9B" stroke-width="1.5" stroke-linecap="round" stroke-linejoin="round"/>
<path d="M261.538 85.1192C264.937 85.1192 267.692 82.3477 267.692 78.9288C267.692 75.5099 264.937 72.7383 261.538 72.7383C258.14 72.7383 255.385 75.5099 255.385 78.9288C255.385 82.3477 258.14 85.1192 261.538 85.1192Z" fill="#240CFF"/>
<path d="M261.538 137.738C264.937 137.738 267.692 134.966 267.692 131.547C267.692 128.129 264.937 125.357 261.538 125.357C258.14 125.357 255.385 128.129 255.385 131.547C255.385 134.966 258.14 137.738 261.538 137.738Z" fill="#240CFF"/>
<path d="M261.538 190.357C264.937 190.357 267.692 187.585 267.692 184.167C267.692 180.748 264.937 177.976 261.538 177.976C258.14 177.976 255.385 180.748 255.385 184.167C255.385 187.585 258.14 190.357 261.538 190.357Z" fill="#240CFF"/>
<path d="M261.539 85.1191V125.357" stroke="#240CFF" stroke-width="1.5" stroke-linecap="round" stroke-linejoin="round"/>
<path d="M261.539 137.738V177.976" stroke="#240CFF" stroke-width="1.5" stroke-linecap="round" stroke-linejoin="round"/>
</svg>
