<svg width="400" height="260" viewBox="0 0 400 260" fill="none" xmlns="http://www.w3.org/2000/svg">
<path d="M360 21.6665H40C31.5033 21.6665 24.6154 28.5954 24.6154 37.1427V222.857C24.6154 231.404 31.5033 238.333 40 238.333H360C368.497 238.333 375.385 231.404 375.385 222.857V37.1427C375.385 28.5954 368.497 21.6665 360 21.6665Z" stroke="#9B9B9B" stroke-width="1.5" stroke-linecap="round" stroke-linejoin="round"/>
<path d="M24.6154 58.8096H375.385" stroke="#9B9B9B" stroke-width="1.5" stroke-linecap="round" stroke-linejoin="round"/>
<path d="M46.1539 43.9525C48.1931 43.9525 49.8462 42.2896 49.8462 40.2382C49.8462 38.1869 48.1931 36.5239 46.1539 36.5239C44.1146 36.5239 42.4615 38.1869 42.4615 40.2382C42.4615 42.2896 44.1146 43.9525 46.1539 43.9525Z" fill="#9B9B9B"/>
<path d="M61.5384 43.9525C63.5776 43.9525 65.2308 42.2896 65.2308 40.2382C65.2308 38.1869 63.5776 36.5239 61.5384 36.5239C59.4992 36.5239 57.8461 38.1869 57.8461 40.2382C57.8461 42.2896 59.4992 43.9525 61.5384 43.9525Z" fill="#9B9B9B"/>
<path d="M76.9231 43.9525C78.9623 43.9525 80.6154 42.2896 80.6154 40.2382C80.6154 38.1869 78.9623 36.5239 76.9231 36.5239C74.8839 36.5239 73.2308 38.1869 73.2308 40.2382C73.2308 42.2896 74.8839 43.9525 76.9231 43.9525Z" fill="#9B9B9B"/>
<path d="M135.385 58.8096V238.333" stroke="#9B9B9B" stroke-width="1.5" stroke-linecap="round" stroke-linejoin="round"/>
<path d="M110 80.4761H50C46.1765 80.4761 43.0769 83.5941 43.0769 87.4404C43.0769 91.2866 46.1765 94.4046 50 94.4046H110C113.824 94.4046 116.923 91.2866 116.923 87.4404C116.923 83.5941 113.824 80.4761 110 80.4761Z" fill="#240CFF"/>
<path d="M110 108.333H50C46.1765 108.333 43.0769 111.452 43.0769 115.298C43.0769 119.144 46.1765 122.262 50 122.262H110C113.824 122.262 116.923 119.144 116.923 115.298C116.923 111.452 113.824 108.333 110 108.333Z" fill="#9B9B9B" fill-opacity="0.5"/>
<path d="M110 136.19H50C46.1765 136.19 43.0769 139.308 43.0769 143.155C43.0769 147.001 46.1765 150.119 50 150.119H110C113.824 150.119 116.923 147.001 116.923 143.155C116.923 139.308 113.824 136.19 110 136.19Z" fill="#9B9B9B" fill-opacity="0.5"/>
<path d="M326.923 83.5713H171.538C165.166 83.5713 160 88.768 160 95.1784C160 101.589 165.166 106.786 171.538 106.786H326.923C333.296 106.786 338.462 101.589 338.462 95.1784C338.462 88.768 333.296 83.5713 326.923 83.5713Z" stroke="#9B9B9B" stroke-width="1.5" stroke-linecap="round" stroke-linejoin="round"/>
<path d="M326.923 126.905H202.308C195.935 126.905 190.769 132.101 190.769 138.512C190.769 144.922 195.935 150.119 202.308 150.119H326.923C333.296 150.119 338.462 144.922 338.462 138.512C338.462 132.101 333.296 126.905 326.923 126.905Z" fill="#E9E7FF" stroke="#240CFF" stroke-width="1.5" stroke-linecap="round" stroke-linejoin="round"/>
<path d="M323.077 191.905H175.385C166.888 191.905 160 198.834 160 207.381C160 215.928 166.888 222.857 175.385 222.857H323.077C331.574 222.857 338.462 215.928 338.462 207.381C338.462 198.834 331.574 191.905 323.077 191.905Z" stroke="#9B9B9B" stroke-width="1.5" stroke-linecap="round" stroke-linejoin="round"/>
<path d="M323.077 216.667C328.175 216.667 332.308 212.509 332.308 207.381C332.308 202.253 328.175 198.095 323.077 198.095C317.979 198.095 313.846 202.253 313.846 207.381C313.846 212.509 317.979 216.667 323.077 216.667Z" fill="#240CFF"/>
</svg>
