<svg width="400" height="260" viewBox="0 0 400 260" fill="none" xmlns="http://www.w3.org/2000/svg">
<path d="M206.154 12.3809H107.692C99.1955 12.3809 92.3076 19.3098 92.3076 27.857C92.3076 36.4043 99.1955 43.3332 107.692 43.3332H206.154C214.65 43.3332 221.538 36.4043 221.538 27.857C221.538 19.3098 214.65 12.3809 206.154 12.3809Z" fill="#240CFF" fill-opacity="0.16" stroke="#240CFF" stroke-width="1.5" stroke-linecap="round" stroke-linejoin="round"/>
<path d="M156.923 43.3335V55.7144" stroke="white" stroke-opacity="0.28" stroke-width="1.5" stroke-linecap="round" stroke-linejoin="round"/>
<path d="M215.385 55.7144H98.4615C95.0628 55.7144 92.3076 58.4859 92.3076 61.9048V83.5715C92.3076 86.9904 95.0628 89.762 98.4615 89.762H215.385C218.783 89.762 221.538 86.9904 221.538 83.5715V61.9048C221.538 58.4859 218.783 55.7144 215.385 55.7144Z" stroke="#9B9B9B" stroke-width="1.5" stroke-linecap="round" stroke-linejoin="round"/>
<path d="M104.615 72.7383H153.846" stroke="#9B9B9B" stroke-width="1.5" stroke-linecap="round" stroke-linejoin="round"/>
<path d="M156.923 89.7617V95.9522" stroke="#9B9B9B" stroke-width="1.5" stroke-linecap="round" stroke-linejoin="round"/>
<path d="M156.923 95.9521L190.769 123.809L156.923 151.666L123.077 123.809L156.923 95.9521Z" stroke="#9B9B9B" stroke-width="1.5" stroke-linecap="round" stroke-linejoin="round"/>
<path d="M190.769 123.81H243.077" stroke="#9B9B9B" stroke-width="1.5" stroke-linecap="round" stroke-linejoin="round"/>
<path d="M301.538 105.238H249.231C245.832 105.238 243.077 108.01 243.077 111.429V136.191C243.077 139.61 245.832 142.381 249.231 142.381H301.538C304.937 142.381 307.692 139.61 307.692 136.191V111.429C307.692 108.01 304.937 105.238 301.538 105.238Z" stroke="#9B9B9B" stroke-width="1.5" stroke-linecap="round" stroke-linejoin="round"/>
<path d="M156.923 151.667V160.952" stroke="#9B9B9B" stroke-width="1.5" stroke-linecap="round" stroke-linejoin="round"/>
<path d="M215.385 160.952H98.4615C95.0628 160.952 92.3076 163.724 92.3076 167.143V188.809C92.3076 192.228 95.0628 195 98.4615 195H215.385C218.783 195 221.538 192.228 221.538 188.809V167.143C221.538 163.724 218.783 160.952 215.385 160.952Z" stroke="#9B9B9B" stroke-width="1.5" stroke-linecap="round" stroke-linejoin="round"/>
<path d="M104.615 177.976H153.846" stroke="#9B9B9B" stroke-width="1.5" stroke-linecap="round" stroke-linejoin="round"/>
<path d="M156.923 195V204.286" stroke="#9B9B9B" stroke-width="1.5" stroke-linecap="round" stroke-linejoin="round"/>
<path d="M206.154 204.286H107.692C99.1955 204.286 92.3076 211.215 92.3076 219.762C92.3076 228.309 99.1955 235.238 107.692 235.238H206.154C214.65 235.238 221.538 228.309 221.538 219.762C221.538 211.215 214.65 204.286 206.154 204.286Z" stroke="#9B9B9B" stroke-width="1.5" stroke-linecap="round" stroke-linejoin="round"/>
<path d="M364.615 18.5713H330.769C323.122 18.5713 316.923 24.8073 316.923 32.4999V60.357C316.923 68.0495 323.122 74.2856 330.769 74.2856H364.615C372.262 74.2856 378.462 68.0495 378.462 60.357V32.4999C378.462 24.8073 372.262 18.5713 364.615 18.5713Z" stroke="#240CFF" stroke-width="1.5" stroke-linecap="round" stroke-linejoin="round"/>
<path d="M336.923 50.4524C339.132 50.4524 340.923 48.6509 340.923 46.4286C340.923 44.2063 339.132 42.4048 336.923 42.4048C334.714 42.4048 332.923 44.2063 332.923 46.4286C332.923 48.6509 334.714 50.4524 336.923 50.4524Z" fill="#240CFF"/>
<path d="M358.462 50.4524C360.671 50.4524 362.462 48.6509 362.462 46.4286C362.462 44.2063 360.671 42.4048 358.462 42.4048C356.253 42.4048 354.462 44.2063 354.462 46.4286C354.462 48.6509 356.253 50.4524 358.462 50.4524Z" fill="#240CFF"/>
<path d="M347.692 18.5716V7.73828" stroke="#240CFF" stroke-width="1.5" stroke-linecap="round" stroke-linejoin="round"/>
<path d="M347.692 8.66674C349.052 8.66674 350.154 7.55811 350.154 6.19055C350.154 4.82298 349.052 3.71436 347.692 3.71436C346.333 3.71436 345.231 4.82298 345.231 6.19055C345.231 7.55811 346.333 8.66674 347.692 8.66674Z" fill="#240CFF"/>
</svg>
