<svg width="400" height="260" viewBox="0 0 400 260" fill="none" xmlns="http://www.w3.org/2000/svg">
<path d="M129.231 142.381H172.308" stroke="#9B9B9B" stroke-width="1.5" stroke-linecap="round" stroke-linejoin="round"/>
<path d="M286.154 130C313.846 130 310.769 77.3809 338.462 77.3809" stroke="#240CFF" stroke-width="1.5" stroke-linecap="round" stroke-linejoin="round"/>
<path d="M286.154 154.762C313.846 154.762 310.769 207.381 338.462 207.381" stroke="#240CFF" stroke-width="1.5" stroke-linecap="round" stroke-linejoin="round"/>
<path d="M118.461 114.524H38.4615C32.5138 114.524 27.6923 119.374 27.6923 125.357V159.405C27.6923 165.388 32.5138 170.238 38.4615 170.238H118.461C124.409 170.238 129.231 165.388 129.231 159.405V125.357C129.231 119.374 124.409 114.524 118.461 114.524Z" stroke="#9B9B9B" stroke-width="1.5" stroke-linecap="round" stroke-linejoin="round"/>
<path d="M58.4615 130H46.1538C42.7552 130 40 132.772 40 136.19V148.571C40 151.99 42.7552 154.762 46.1538 154.762H58.4615C61.8602 154.762 64.6154 151.99 64.6154 148.571V136.19C64.6154 132.772 61.8602 130 58.4615 130Z" fill="#240CFF"/>
<path d="M113.077 133.095H77.6923C75.5682 133.095 73.8462 134.827 73.8462 136.964C73.8462 139.101 75.5682 140.833 77.6923 140.833H113.077C115.201 140.833 116.923 139.101 116.923 136.964C116.923 134.827 115.201 133.095 113.077 133.095Z" fill="#9B9B9B" fill-opacity="0.5"/>
<path d="M100.769 148.571H77.6923C75.5682 148.571 73.8462 150.304 73.8462 152.44C73.8462 154.577 75.5682 156.309 77.6923 156.309H100.769C102.893 156.309 104.615 154.577 104.615 152.44C104.615 150.304 102.893 148.571 100.769 148.571Z" fill="#9B9B9B" fill-opacity="0.5"/>
<path d="M272.308 95.9521H186.154C178.507 95.9521 172.308 102.188 172.308 109.881V171.785C172.308 179.478 178.507 185.714 186.154 185.714H272.308C279.955 185.714 286.154 179.478 286.154 171.785V109.881C286.154 102.188 279.955 95.9521 272.308 95.9521Z" fill="#240CFF" fill-opacity="0.1" stroke="#240CFF" stroke-width="1.5" stroke-linecap="round" stroke-linejoin="round"/>
<path d="M206.154 111.429H190.769C187.371 111.429 184.615 114.2 184.615 117.619V133.095C184.615 136.514 187.371 139.286 190.769 139.286H206.154C209.552 139.286 212.308 136.514 212.308 133.095V117.619C212.308 114.2 209.552 111.429 206.154 111.429Z" fill="#240CFF"/>
<path d="M269.231 117.619H226.154C223.605 117.619 221.538 119.698 221.538 122.262C221.538 124.826 223.605 126.905 226.154 126.905H269.231C271.78 126.905 273.846 124.826 273.846 122.262C273.846 119.698 271.78 117.619 269.231 117.619Z" fill="white"/>
<path d="M256.923 136.19H226.154C223.605 136.19 221.538 138.269 221.538 140.833C221.538 143.397 223.605 145.476 226.154 145.476H256.923C259.472 145.476 261.538 143.397 261.538 140.833C261.538 138.269 259.472 136.19 256.923 136.19Z" fill="#9B9B9B" fill-opacity="0.5"/>
<path d="M265.385 154.762H193.077C188.404 154.762 184.615 158.573 184.615 163.274C184.615 167.975 188.404 171.786 193.077 171.786H265.385C270.058 171.786 273.846 167.975 273.846 163.274C273.846 158.573 270.058 154.762 265.385 154.762Z" stroke="#9B9B9B" stroke-opacity="0.5" stroke-width="1.5" stroke-linecap="round" stroke-linejoin="round"/>
<path d="M381.538 51.0713H347.692C342.594 51.0713 338.462 55.2286 338.462 60.357V94.4046C338.462 99.533 342.594 103.69 347.692 103.69H381.538C386.636 103.69 390.769 99.533 390.769 94.4046V60.357C390.769 55.2286 386.636 51.0713 381.538 51.0713Z" stroke="#9B9B9B" stroke-width="1.5" stroke-linecap="round" stroke-linejoin="round"/>
<path d="M358.462 63.4521H352.308C349.759 63.4521 347.692 65.5308 347.692 68.095V74.2855C347.692 76.8497 349.759 78.9283 352.308 78.9283H358.462C361.011 78.9283 363.077 76.8497 363.077 74.2855V68.095C363.077 65.5308 361.011 63.4521 358.462 63.4521Z" fill="white" fill-opacity="0.28"/>
<path d="M375.385 86.6665H350.769C349.07 86.6665 347.692 88.0523 347.692 89.7617C347.692 91.4712 349.07 92.857 350.769 92.857H375.385C377.084 92.857 378.462 91.4712 378.462 89.7617C378.462 88.0523 377.084 86.6665 375.385 86.6665Z" fill="#9B9B9B" fill-opacity="0.5"/>
<path d="M381.538 181.071H347.692C342.594 181.071 338.462 185.229 338.462 190.357V224.405C338.462 229.533 342.594 233.69 347.692 233.69H381.538C386.636 233.69 390.769 229.533 390.769 224.405V190.357C390.769 185.229 386.636 181.071 381.538 181.071Z" stroke="#9B9B9B" stroke-width="1.5" stroke-linecap="round" stroke-linejoin="round"/>
<path d="M358.462 193.452H352.308C349.759 193.452 347.692 195.531 347.692 198.095V204.285C347.692 206.85 349.759 208.928 352.308 208.928H358.462C361.011 208.928 363.077 206.85 363.077 204.285V198.095C363.077 195.531 361.011 193.452 358.462 193.452Z" fill="white" fill-opacity="0.28"/>
<path d="M375.385 216.667H350.769C349.07 216.667 347.692 218.052 347.692 219.762C347.692 221.471 349.07 222.857 350.769 222.857H375.385C377.084 222.857 378.462 221.471 378.462 219.762C378.462 218.052 377.084 216.667 375.385 216.667Z" fill="#9B9B9B" fill-opacity="0.5"/>
<path d="M129.231 146.405C131.44 146.405 133.231 144.603 133.231 142.381C133.231 140.158 131.44 138.357 129.231 138.357C127.022 138.357 125.231 140.158 125.231 142.381C125.231 144.603 127.022 146.405 129.231 146.405Z" fill="#240CFF"/>
<path d="M286.154 134.024C288.363 134.024 290.154 132.222 290.154 130C290.154 127.778 288.363 125.976 286.154 125.976C283.945 125.976 282.154 127.778 282.154 130C282.154 132.222 283.945 134.024 286.154 134.024Z" fill="#240CFF"/>
<path d="M286.154 158.786C288.363 158.786 290.154 156.984 290.154 154.762C290.154 152.54 288.363 150.738 286.154 150.738C283.945 150.738 282.154 152.54 282.154 154.762C282.154 156.984 283.945 158.786 286.154 158.786Z" fill="#240CFF"/>
<path d="M338.462 81.4045C340.671 81.4045 342.462 79.603 342.462 77.3807C342.462 75.1585 340.671 73.3569 338.462 73.3569C336.252 73.3569 334.462 75.1585 334.462 77.3807C334.462 79.603 336.252 81.4045 338.462 81.4045Z" fill="#240CFF"/>
<path d="M338.462 211.405C340.671 211.405 342.462 209.603 342.462 207.381C342.462 205.158 340.671 203.357 338.462 203.357C336.252 203.357 334.462 205.158 334.462 207.381C334.462 209.603 336.252 211.405 338.462 211.405Z" fill="#240CFF"/>
</svg>
