<svg width="1059" height="107" viewBox="0 0 1059 107" fill="none" xmlns="http://www.w3.org/2000/svg">
  <title>Century unified layer diagram</title>
  <defs>
    <pattern id="grid" width="24" height="24" patternUnits="userSpaceOnUse">
      <path d="M24 0H0V24" stroke="#DEDCEF" stroke-width="1"/>
    </pattern>
    <filter id="softShadow" x="-20%" y="-30%" width="140%" height="180%" color-interpolation-filters="sRGB">
      <feDropShadow dx="0" dy="5" stdDeviation="8" flood-color="#3027FF" flood-opacity=".08"/>
    </filter>
    <linearGradient id="nodeGlow" x1="502" y1="81" x2="531" y2="108" gradientUnits="userSpaceOnUse">
      <stop stop-color="#FFFFFF"/>
      <stop offset="1" stop-color="#D8D5FF"/>
    </linearGradient>
  </defs>

  <rect width="1059" height="107" fill="#F7F6FF"/>
  <rect width="1059" height="107" fill="url(#grid)" opacity=".72"/>

  <g stroke="#6860A8" stroke-width="1.25" stroke-linecap="round" stroke-dasharray="2 7" opacity=".7">
    <path d="M88 17C151 38 269 39 356 49C441 59 498 70 516 88"/>
    <path d="M165 14C185 36 284 44 371 51C454 58 501 72 516 88"/>
    <path d="M95 31C176 50 328 50 421 61C479 68 508 79 516 88"/>
    <path d="M517 17C516 42 516 66 516 88"/>
    <path d="M866 17C803 38 686 39 601 49C557 54 527 73 517 88"/>
    <path d="M947 14C907 38 805 45 693 53C602 60 538 75 517 88"/>
    <path d="M789 31C718 50 622 50 572 63C541 71 523 82 517 88"/>
  </g>

  <g filter="url(#softShadow)">
    <rect x="-2" y="-54" width="334" height="64" rx="8" fill="white" stroke="#EBEAF5"/>
    <rect x="350" y="-54" width="333" height="64" rx="8" fill="white" stroke="#EBEAF5"/>
    <rect x="702" y="-54" width="333" height="64" rx="8" fill="white" stroke="#EBEAF5"/>
  </g>

  <path d="M0 107V106C0 98.3 6.3 92 14 92H1028C1045.1 92 1059 105.9 1059 123" stroke="#C9C6EA" stroke-width="1.2"/>
  <rect x="22" y="84" width="163" height="19" rx="9.5" fill="#F7F6FF"/>
  <text x="32" y="96" fill="#240CFF" font-family="'Lato', sans-serif" font-size="10" font-weight="600" letter-spacing="2.2">ЕДИНЫЙ СЛОЙ CENTURY</text>

  <g transform="translate(516.5 94.5)">
    <circle r="13.2" fill="#CFCBFF" opacity=".55"/>
    <circle r="10" fill="url(#nodeGlow)" stroke="#7D75FF" stroke-width="1.2"/>
    <circle r="6" fill="#240CFF"/>
    <circle r="2.45" fill="white"/>
    <circle r="1.45" fill="#240CFF"/>
  </g>
</svg>
