<svg width="150" height="48" viewBox="0 0 150 48" fill="none" xmlns="http://www.w3.org/2000/svg">
<path fill-rule="evenodd" clip-rule="evenodd" d="M73.4001 39.3945C74.9133 40.2312 76.6539 40.625 78.3673 40.6715L78.3883 40.6353V40.6715C81.9487 40.6715 85.8693 38.7622 87.0183 35.1713H82.3208C80.6032 36.9851 77.4164 36.9119 75.2771 35.6329C73.7844 34.7407 72.8776 33.2547 72.5643 31.6473H87.1544V25.3421C86.8518 24.7589 86.4909 24.2066 86.072 23.6969C85.3468 22.8151 84.4445 22.0663 83.3555 21.4623C81.7617 20.5783 80.0976 20.1652 78.3883 20.1543V20.216L78.3673 20.1543C76.658 20.1652 74.9939 20.5783 73.4001 21.4623C72.3115 22.0663 71.4087 22.8151 70.684 23.6969C67.6267 27.4154 67.6739 33.398 70.684 37.1042C71.47 38.072 72.3801 38.8304 73.4001 39.3945ZM75.2771 25.135C74.14 25.8022 73.347 26.8077 72.894 27.9497H83.8615C83.4089 26.8077 82.6155 25.8022 81.4784 25.135C79.5155 23.9829 77.2483 23.9783 75.2771 25.135Z" fill="white"/>
<path d="M90.4404 40.2051C90.4404 40.2051 90.4404 29.5969 90.4404 28.1182C90.4404 27.1581 90.6596 25.4311 91.3129 24.2102H89.0341V20.693H92.7572V23.0592C94.1597 21.4302 96.2288 20.3198 98.6549 20.3198H100.115V24.3205H97.4737C95.8018 24.3205 94.7431 25.234 94.7431 27.0439V40.2051H90.4404Z" fill="white"/>
<path d="M58.4656 24.5674V32.6417C58.4656 37.3234 60.6004 40.4039 65.6541 40.4039H67.1902V36.2116H65.5072C63.8357 36.2116 62.8675 35.2974 62.8675 33.4864V24.5406L67.3355 24.5442V20.6889L62.8675 20.6862V15.6328H58.4656V20.6881C50.462 20.6923 41.9294 20.7031 41.9294 20.7031V29.0799L49.8113 31.6039C51.0375 32.005 52.148 32.6557 52.148 34.1377C52.148 35.4828 50.685 36.3212 49.3562 36.3212H41.9707V40.2154H49.8113C53.2766 40.2154 56.2927 38.1283 56.2927 34.1377C56.2927 31.4931 54.5939 29.3469 52.148 28.4156L43.5677 25.6091C43.113 25.4846 43.0307 24.571 43.7866 24.571L58.4656 24.5674Z" fill="white"/>
<path d="M19.8253 40.1908H15.4316C15.4316 37.058 15.4363 31.6618 15.4293 28.529C15.4275 27.7923 15.3603 27.0625 15.0469 26.3657C14.5073 25.1647 13.4821 24.5532 12.0782 24.3891C10.0332 24.1504 7.98679 25.0632 6.71243 26.3347C6.63585 26.4109 6.63056 26.5592 6.62993 26.6738C6.62451 30.4249 6.62993 36.4396 6.62993 40.1908H2.21448V15.5816L6.58976 12.4795V23.3736C7.54683 21.9336 10.1058 20.499 12.799 20.325C16.1132 20.2925 18.7143 22.1839 19.5661 25.852C19.7358 26.5834 19.8171 27.3427 19.8247 28.09C19.8669 32.1233 19.8253 36.1573 19.8253 40.1908Z" fill="white"/>
<path fill-rule="evenodd" clip-rule="evenodd" d="M41.1453 30.4547C41.1453 36.1435 36.5978 40.7552 30.9882 40.7552C27.1121 40.7552 23.7432 38.5534 22.0311 35.3158V25.5937C23.7432 22.3561 27.1121 20.1543 30.9882 20.1543C36.5978 20.1543 41.1453 24.766 41.1453 30.4547ZM37.0025 30.4545C37.0025 33.8231 34.3097 36.5539 30.988 36.5539C27.6663 36.5539 24.9735 33.8231 24.9735 30.4545C24.9735 27.0859 27.6663 24.3551 30.988 24.3551C34.3097 24.3551 37.0025 27.0859 37.0025 30.4545Z" fill="white"/>
<path fill-rule="evenodd" clip-rule="evenodd" d="M10.3791 0.043457L0.479858 7.01328V12.6051L10.3791 5.57385L20.2663 12.6045V7.01328L10.3791 0.043457Z" fill="#E91641"/>
<path fill-rule="evenodd" clip-rule="evenodd" d="M111.391 14.7559H115.817V22.0977C117.113 20.9934 118.802 20.3291 120.948 20.3291C126.35 20.3291 130.729 24.8559 130.729 30.4399C130.729 36.0239 126.35 40.5506 120.948 40.5506C118.367 40.5506 116.337 39.7845 114.835 38.4121V40.2139H111.391V14.7559ZM120.384 36.4943C123.688 36.4943 126.367 33.7909 126.367 30.4562C126.367 27.1214 123.688 24.418 120.384 24.418C117.079 24.418 114.66 27.1214 114.66 30.4562C114.66 34.5139 117.079 36.4943 120.384 36.4943Z" fill="white"/>
<path d="M102.536 40.197H105.887V36.8374H102.536V40.197Z" fill="white"/>
<path d="M137.697 40.972L137.191 41.9009C136.64 42.8077 135.677 43.0518 134.508 43.0518H131.123V47.2084H134.993C137.635 47.2084 140.24 45.9652 141.336 43.0656C144.114 35.7135 148.97 20.7036 148.97 20.7036H144.575L139.82 35.4902L133.772 20.7036H128.946L137.697 40.972Z" fill="white"/>
</svg>
