<svg xmlns="http://www.w3.org/2000/svg" version="1.0" width="1668.000000pt" height="943.000000pt" viewBox="0 0 1668.000000 943.000000" preserveAspectRatio="xMidYMid meet">

<g transform="translate(0.000000,943.000000) scale(0.100000,-0.100000)" fill="#000000" stroke="none">
<path d="M8307 5944 c-4 -4 -7 -43 -7 -86 0 -70 2 -79 18 -76 14 3 17 15 17 82 0 73 -9 99 -28 80z"/>
<path d="M907 5934 c-8 -8 33 -84 45 -84 17 0 19 29 3 59 -15 29 -34 39 -48 25z"/>
<path d="M2615 5930 c-3 -5 3 -30 14 -55 15 -33 24 -43 36 -39 17 7 14 27 -12 77 -14 28 -27 34 -38 17z"/>
<path d="M15585 5857 c-29 -51 -30 -53 -10 -61 10 -3 23 9 40 38 29 49 31 66 10 66 -8 0 -26 -20 -40 -43z"/>
<path d="M13888 5846 c-19 -32 -23 -47 -15 -55 18 -18 26 -13 52 39 30 59 30 60 7 60 -10 0 -28 -19 -44 -44z"/>
<path d="M1020 5746 c0 -15 64 -76 80 -76 27 0 20 27 -15 57 -41 35 -65 42 -65 19z"/>
<path d="M2733 5729 c-10 -10 -6 -20 18 -51 29 -36 52 -47 63 -30 3 5 -12 27 -32 51 -29 33 -40 40 -49 30z"/>
<path d="M15431 5682 c-37 -32 -41 -39 -29 -50 12 -9 22 -5 56 24 25 21 39 40 35 49 -8 21 -13 19 -62 -23z"/>
<path d="M13745 5660 c-31 -31 -36 -43 -27 -52 10 -10 21 -4 53 28 33 33 38 43 26 52 -11 9 -22 3 -52 -28z"/>
<path d="M1216 5612 c-15 -14 -2 -33 34 -52 38 -20 60 -20 60 0 0 11 -87 60 -94 52z"/>
<path d="M8293 5534 c-1 -72 0 -75 20 -72 20 3 22 10 25 76 3 69 2 72 -20 72 -22 0 -23 -4 -25 -76z"/>
<path d="M15233 5563 c-24 -13 -43 -31 -43 -39 0 -20 13 -18 71 12 42 21 48 28 39 40 -15 17 -16 17 -67 -13z"/>
<path d="M2901 5566 c-12 -14 4 -33 48 -56 17 -9 26 -9 35 0 8 8 5 16 -14 31 -45 35 -57 40 -69 25z"/>
<path d="M13550 5514 c-47 -25 -60 -51 -24 -47 30 3 96 43 91 56 -6 19 -21 17 -67 -9z"/>
<path d="M1416 5512 c-3 -3 -6 -11 -6 -18 0 -10 18 -19 98 -51 7 -3 12 3 12 15 0 14 -14 25 -49 40 -27 11 -52 18 -55 14z"/>
<path d="M15023 5472 c-40 -15 -54 -34 -35 -46 11 -6 98 26 101 37 6 31 -3 33 -66 9z"/>
<path d="M3076 5472 c-16 -15 -1 -35 39 -53 43 -19 65 -19 65 2 0 11 -97 59 -104 51z"/>
<path d="M1633 5424 c-7 -20 3 -28 53 -42 53 -15 74 -15 74 1 0 7 -27 23 -60 35 -53 19 -62 20 -67 6z"/>
<path d="M13323 5404 c-30 -13 -53 -30 -53 -39 0 -8 5 -15 11 -15 8 0 105 38 117 45 5 4 -10 35 -17 34 -3 0 -30 -11 -58 -25z"/>
<path d="M14816 5401 c-48 -17 -66 -33 -48 -45 7 -4 110 20 120 29 5 4 -10 35 -17 34 -3 0 -28 -8 -55 -18z"/>
<path d="M3275 5370 c-10 -17 3 -28 56 -45 43 -15 53 -15 60 -4 11 18 4 23 -55 43 -59 19 -53 18 -61 6z"/>
<path d="M1870 5342 c0 -25 116 -56 125 -34 7 19 10 17 -54 36 -68 20 -71 20 -71 -2z"/>
<path d="M14593 5331 c-40 -12 -53 -21 -53 -34 0 -14 5 -17 16 -13 9 4 36 11 60 17 24 6 44 17 44 25 0 21 -12 21 -67 5z"/>
<path d="M13088 5318 c-34 -12 -58 -26 -58 -34 0 -18 12 -18 77 3 47 15 67 34 46 46 -5 2 -34 -4 -65 -15z"/>
<path d="M15963 5281 c-50 -23 -65 -42 -44 -56 12 -7 121 41 121 53 0 26 -27 27 -77 3z"/>
<path d="M2115 5282 c-7 -20 -9 -19 65 -36 50 -12 66 -12 72 -3 10 17 1 22 -69 39 -55 14 -62 14 -68 0z"/>
<path d="M3506 5285 c-7 -19 42 -43 95 -47 48 -4 46 18 -3 35 -75 27 -85 29 -92 12z"/>
<path d="M8302 5213 c2 -61 6 -78 18 -78 12 0 15 15 15 75 0 64 -3 75 -18 78 -16 3 -18 -4 -15 -75z"/>
<path d="M14335 5266 c-60 -14 -71 -43 -15 -38 51 4 102 22 97 35 -5 16 -24 17 -82 3z"/>
<path d="M12828 5242 c-35 -11 -48 -21 -48 -35 0 -14 5 -17 16 -13 9 4 36 11 60 17 33 8 44 16 44 30 0 22 -9 22 -72 1z"/>
<path d="M2376 5224 c-7 -18 4 -24 72 -39 43 -10 59 -11 64 -2 11 18 -1 25 -69 40 -52 13 -62 13 -67 1z"/>
<path d="M667 5216 c-4 -11 11 -23 50 -40 52 -25 73 -26 73 -6 0 10 -92 60 -109 60 -5 0 -11 -7 -14 -14z"/>
<path d="M3757 5215 c-7 -18 -5 -19 62 -39 68 -20 73 -20 69 0 -2 12 -91 50 -124 54 -1 0 -4 -7 -7 -15z"/>
<path d="M14087 5208 c-37 -10 -45 -30 -14 -36 28 -6 97 18 97 33 0 17 -26 18 -83 3z"/>
<path d="M15761 5187 c-48 -17 -55 -42 -10 -34 51 8 91 26 84 37 -8 13 -31 12 -74 -3z"/>
<path d="M12568 5173 c-46 -13 -58 -25 -39 -37 4 -3 36 0 70 6 48 9 61 15 61 30 0 22 -25 22 -92 1z"/>
<path d="M2626 5172 c-9 -15 19 -33 38 -26 9 4 15 12 13 18 -5 14 -43 20 -51 8z"/>
<path d="M13853 5157 c-27 -6 -43 -15 -43 -25 0 -12 10 -14 56 -8 65 7 74 11 74 32 0 16 -24 17 -87 1z"/>
<path d="M4010 5141 c0 -20 9 -24 101 -46 19 -5 28 -2 32 9 7 19 4 21 -53 36 -25 6 -53 13 -62 16 -13 4 -18 0 -18 -15z"/>
<path d="M15608 5142 c-46 -15 -66 -42 -31 -42 37 0 133 33 133 46 0 18 -41 17 -102 -4z"/>
<path d="M2766 5134 c-3 -9 -6 -17 -6 -18 0 -2 21 -6 48 -9 26 -4 57 -9 70 -13 18 -5 22 -2 22 14 0 16 -10 22 -50 31 -67 14 -77 14 -84 -5z"/>
<path d="M900 5115 c0 -15 95 -49 111 -39 23 14 5 32 -42 42 -64 15 -69 15 -69 -3z"/>
<path d="M12365 5122 c-76 -15 -95 -24 -95 -43 0 -15 5 -19 18 -15 9 3 38 10 65 17 26 6 47 17 47 25 0 17 -10 21 -35 16z"/>
<path d="M13603 5107 c-39 -10 -55 -29 -35 -40 4 -3 34 1 67 7 42 9 61 18 63 29 4 20 -26 21 -95 4z"/>
<path d="M3020 5087 c0 -9 12 -18 28 -21 82 -16 100 -17 107 -6 12 19 -6 28 -72 36 -53 5 -63 4 -63 -9z"/>
<path d="M4235 5091 c-7 -12 17 -25 60 -35 17 -4 38 -9 48 -12 12 -4 17 0 17 14 0 14 -12 21 -51 30 -61 14 -66 15 -74 3z"/>
<path d="M15342 5077 c-24 -7 -43 -15 -43 -20 -1 -27 9 -29 71 -13 71 19 75 20 65 35 -8 13 -37 13 -93 -2z"/>
<path d="M13373 5067 c-53 -8 -63 -13 -63 -30 0 -17 5 -19 33 -13 17 4 49 9 70 13 27 4 37 10 37 24 0 11 -3 18 -7 18 -5 -1 -36 -6 -70 -12z"/>
<path d="M1115 5059 c-9 -14 -4 -18 48 -34 39 -12 46 -12 51 1 6 15 -11 24 -66 38 -15 3 -30 2 -33 -5z"/>
<path d="M12050 5054 c-71 -16 -83 -23 -71 -42 11 -18 156 18 156 38 0 19 -12 20 -85 4z"/>
<path d="M3287 5046 c-8 -19 -3 -22 58 -30 28 -4 58 -9 68 -12 12 -4 17 0 17 14 0 15 -9 21 -37 25 -21 4 -52 9 -69 13 -23 4 -33 2 -37 -10z"/>
<path d="M4470 5040 c0 -17 60 -41 93 -38 44 4 37 19 -15 35 -52 15 -78 16 -78 3z"/>
<path d="M15100 5029 c-78 -14 -90 -19 -90 -34 0 -18 5 -18 87 -4 40 7 63 16 63 24 0 20 -10 22 -60 14z"/>
<path d="M13088 5018 c-32 -7 -48 -15 -48 -25 0 -13 11 -14 68 -8 76 8 82 10 82 31 0 16 -30 17 -102 2z"/>
<path d="M1340 5002 c0 -15 13 -21 66 -31 46 -8 70 -9 77 -2 16 16 5 22 -65 37 -81 17 -78 17 -78 -4z"/>
<path d="M3560 4996 c0 -17 16 -23 93 -32 52 -6 57 -5 57 13 0 17 -9 21 -52 27 -80 9 -98 8 -98 -8z"/>
<path d="M11771 4996 c-52 -11 -73 -27 -53 -40 9 -5 119 11 134 20 11 7 -2 34 -16 33 -6 -1 -35 -6 -65 -13z"/>
<path d="M4712 4983 c2 -12 20 -20 66 -28 34 -7 64 -9 67 -7 16 17 -2 31 -52 41 -75 15 -85 14 -81 -6z"/>
<path d="M12830 4976 c-50 -8 -66 -15 -68 -30 -3 -16 1 -18 30 -13 18 4 52 9 76 13 32 5 42 11 42 25 0 11 -3 18 -7 18 -5 -1 -37 -7 -73 -13z"/>
<path d="M14800 4976 c-46 -8 -65 -15 -65 -26 0 -17 -2 -17 83 -6 51 7 62 12 62 27 0 11 -3 18 -7 18 -5 -1 -37 -7 -73 -13z"/>
<path d="M1615 4960 c-12 -19 5 -28 65 -35 75 -9 74 -9 78 8 2 11 -14 18 -61 26 -77 13 -74 13 -82 1z"/>
<path d="M3840 4957 c0 -18 14 -23 92 -32 38 -4 58 -2 63 5 12 20 -7 28 -82 35 -62 6 -73 5 -73 -8z"/>
<path d="M8300 4966 c-3 -2 -4 -38 -2 -80 3 -68 6 -76 23 -76 18 0 20 6 17 77 -2 61 -6 78 -18 81 -9 1 -18 1 -20 -2z"/>
<path d="M4970 4932 c0 -17 9 -21 57 -27 31 -4 62 -9 70 -12 8 -3 13 2 13 15 0 15 -9 21 -37 25 -21 4 -53 9 -70 13 -29 6 -33 4 -33 -14z"/>
<path d="M11482 4938 c-32 -7 -42 -14 -40 -26 4 -19 7 -19 91 -2 37 8 57 16 57 26 0 16 -41 17 -108 2z"/>
<path d="M14540 4943 c-81 -12 -90 -15 -90 -28 0 -29 152 -12 158 18 4 17 -9 19 -68 10z"/>
<path d="M4130 4922 c0 -18 9 -22 58 -27 31 -4 65 -9 75 -11 12 -4 17 0 17 15 0 16 -9 21 -47 26 -27 3 -60 9 -75 11 -23 5 -28 2 -28 -14z"/>
<path d="M12545 4933 c-11 -2 -30 -6 -42 -9 -13 -2 -23 -12 -23 -20 0 -14 9 -15 68 -9 76 8 82 10 82 31 0 14 -38 17 -85 7z"/>
<path d="M1885 4921 c-11 -19 -1 -23 71 -30 51 -6 67 -4 71 6 8 20 4 21 -68 29 -47 5 -68 3 -74 -5z"/>
<path d="M14213 4903 c-23 -3 -33 -10 -33 -22 0 -16 7 -17 72 -9 78 10 83 11 73 27 -6 11 -47 12 -112 4z"/>
<path d="M2160 4887 c0 -15 10 -18 117 -30 20 -2 34 2 37 9 7 19 0 21 -82 29 -62 7 -72 5 -72 -8z"/>
<path d="M4410 4886 c0 -10 16 -17 48 -21 26 -3 59 -9 75 -11 22 -5 27 -2 27 14 0 15 -9 21 -46 26 -75 10 -104 8 -104 -8z"/>
<path d="M5230 4886 c0 -8 24 -20 65 -30 79 -20 75 -20 75 2 0 14 -13 21 -51 30 -66 16 -89 15 -89 -2z"/>
<path d="M11223 4887 c-32 -6 -53 -15 -53 -23 0 -22 14 -24 79 -12 48 9 61 15 61 30 0 20 -8 21 -87 5z"/>
<path d="M12241 4889 c-50 -10 -56 -13 -46 -29 5 -9 26 -10 67 -6 73 9 88 14 88 32 0 16 -39 17 -109 3z"/>
<path d="M2443 4862 c-8 -19 -3 -21 75 -28 63 -6 72 -5 72 9 0 18 -21 25 -94 29 -33 2 -50 -1 -53 -10z"/>
<path d="M13918 4873 c-47 -7 -34 -33 16 -33 63 0 106 11 106 26 0 14 -56 17 -122 7z"/>
<path d="M4680 4852 c0 -18 7 -21 71 -24 130 -6 128 23 -3 37 -64 7 -68 6 -68 -13z"/>
<path d="M5484 4845 c-9 -22 8 -32 69 -40 36 -5 52 -4 58 6 12 20 3 26 -47 34 -26 3 -53 9 -60 12 -8 3 -17 -3 -20 -12z"/>
<path d="M11980 4851 c-32 -4 -46 -11 -48 -23 -4 -20 14 -22 92 -12 36 5 46 11 46 25 0 20 -7 21 -90 10z"/>
<path d="M2727 4835 c-8 -20 -1 -23 83 -26 61 -3 75 -1 75 11 0 28 -148 42 -158 15z"/>
<path d="M10948 4838 c-47 -8 -58 -14 -58 -30 0 -16 5 -18 38 -12 95 16 107 20 110 37 4 19 -3 20 -90 5z"/>
<path d="M13613 4843 c-37 -7 -28 -33 11 -33 66 0 126 12 126 26 0 10 -15 14 -57 13 -32 -1 -68 -4 -80 -6z"/>
<path d="M4980 4822 c0 -16 9 -20 53 -26 82 -9 107 -8 107 8 0 21 -6 23 -87 31 -68 7 -73 6 -73 -13z"/>
<path d="M3020 4816 c0 -18 31 -26 103 -26 41 0 57 4 57 14 0 8 -17 16 -46 20 -76 10 -114 8 -114 -8z"/>
<path d="M11750 4822 c-54 -6 -86 -42 -36 -42 44 0 86 12 86 26 0 17 -9 20 -50 16z"/>
<path d="M13336 4821 c-16 -3 -31 -12 -34 -20 -4 -11 10 -13 72 -9 80 5 92 10 81 27 -7 12 -71 13 -119 2z"/>
<path d="M3310 4796 c0 -10 20 -16 75 -21 80 -8 91 -5 82 20 -9 21 -157 22 -157 1z"/>
<path d="M5730 4791 c0 -14 10 -20 43 -25 23 -4 52 -9 65 -13 17 -4 22 -1 22 15 0 15 -11 21 -57 31 -73 14 -73 14 -73 -8z"/>
<path d="M13057 4801 c-21 -3 -38 -9 -37 -13 0 -5 0 -11 0 -15 0 -5 33 -6 72 -3 59 4 73 8 76 23 3 14 -3 17 -35 16 -21 -1 -55 -5 -76 -8z"/>
<path d="M3600 4780 c0 -18 7 -20 80 -20 61 0 80 3 80 14 0 15 -49 26 -117 26 -36 0 -43 -3 -43 -20z"/>
<path d="M5270 4786 c0 -15 119 -42 145 -32 29 11 16 33 -22 40 -68 11 -123 7 -123 -8z"/>
<path d="M10670 4786 c-38 -8 -56 -17 -58 -29 -4 -20 1 -21 85 -5 49 9 63 15 61 27 -4 20 -21 22 -88 7z"/>
<path d="M3884 4776 c-4 -9 -5 -18 -3 -20 2 -2 37 -6 77 -9 59 -5 74 -3 79 9 8 21 6 21 -74 29 -63 7 -74 5 -79 -9z"/>
<path d="M12727 4784 c-3 -3 -3 -12 0 -20 3 -10 22 -14 57 -14 65 0 96 9 96 26 0 11 -18 14 -73 14 -41 0 -76 -3 -80 -6z"/>
<path d="M11430 4765 c0 -16 20 -19 58 -9 36 10 25 24 -18 24 -29 0 -40 -4 -40 -15z"/>
<path d="M12510 4770 c-58 -4 -75 -8 -75 -20 0 -12 14 -15 74 -13 79 2 85 4 79 25 -2 10 -21 12 -78 8z"/>
<path d="M4170 4756 c0 -10 16 -17 53 -21 69 -9 102 -4 102 15 0 12 -17 16 -77 18 -63 2 -78 0 -78 -12z"/>
<path d="M5555 4760 c-11 -18 5 -27 63 -34 42 -5 52 -4 52 8 0 19 -6 22 -62 30 -30 5 -49 3 -53 -4z"/>
<path d="M4452 4743 c3 -15 16 -18 81 -21 71 -3 78 -1 75 15 -3 15 -16 18 -81 21 -71 3 -78 1 -75 -15z"/>
<path d="M5990 4745 c0 -9 17 -20 46 -27 36 -10 41 -14 25 -18 -42 -10 -24 -25 44 -37 49 -9 72 -10 80 -2 11 11 -18 39 -42 39 -8 0 -13 8 -11 17 2 13 -9 20 -47 29 -71 17 -95 17 -95 -1z"/>
<path d="M11280 4744 c0 -9 7 -14 17 -12 25 5 28 28 4 28 -12 0 -21 -6 -21 -16z"/>
<path d="M12158 4753 c-16 -2 -28 -11 -28 -19 0 -11 15 -14 63 -14 76 0 107 8 107 26 0 14 -73 17 -142 7z"/>
<path d="M4742 4732 c-7 -19 -4 -20 78 -23 63 -3 75 -2 78 13 3 14 -8 17 -74 20 -56 2 -78 0 -82 -10z"/>
<path d="M11104 4739 c-3 -6 -2 -15 3 -20 11 -11 65 3 71 19 5 15 -64 16 -74 1z"/>
<path d="M5795 4729 c-11 -17 2 -23 63 -30 60 -7 82 0 59 19 -19 16 -114 25 -122 11z"/>
<path d="M10378 4728 c-38 -8 -48 -14 -48 -30 0 -14 5 -18 15 -15 8 4 41 12 75 19 36 7 60 17 60 25 0 15 -33 15 -102 1z"/>
<path d="M10930 4731 c-31 -4 -45 -11 -45 -21 0 -11 10 -14 44 -12 39 2 114 31 84 32 -6 0 -17 2 -25 3 -7 2 -33 1 -58 -2z"/>
<path d="M11838 4733 c-30 -8 -21 -33 11 -33 74 0 151 13 151 26 0 11 -18 14 -72 13 -40 -1 -81 -3 -90 -6z"/>
<path d="M5032 4713 c3 -15 16 -18 81 -21 61 -2 77 0 77 11 0 19 -31 27 -103 27 -50 0 -58 -2 -55 -17z"/>
<path d="M11573 4723 c-56 -4 -63 -6 -63 -25 0 -20 4 -20 61 -14 34 3 73 6 85 6 17 0 24 6 24 20 0 15 -6 19 -22 18 -13 -1 -51 -3 -85 -5z"/>
<path d="M5315 4700 c-11 -17 -4 -19 79 -27 73 -6 78 -5 74 13 -3 16 -14 19 -75 22 -44 2 -74 -1 -78 -8z"/>
<path d="M10625 4700 c-11 -5 -37 -9 -57 -9 -26 -1 -38 -6 -38 -15 0 -12 15 -13 78 -9 99 7 148 16 145 28 -3 13 -102 17 -128 5z"/>
<path d="M11265 4701 c-28 -4 -41 -12 -43 -24 -4 -18 2 -18 75 -12 43 4 80 9 82 11 2 2 1 10 -2 19 -7 16 -37 17 -112 6z"/>
<path d="M5600 4676 c0 -16 43 -26 111 -26 35 0 49 4 49 14 0 18 -31 26 -102 26 -43 0 -58 -4 -58 -14z"/>
<path d="M6343 4675 c-3 -9 -4 -17 -2 -19 2 -2 39 -11 82 -19 73 -13 78 -13 88 4 10 20 15 18 -81 39 -63 13 -80 12 -87 -5z"/>
<path d="M11000 4681 c-51 -5 -66 -10 -68 -23 -3 -15 4 -18 40 -18 78 0 118 11 118 31 0 11 -6 18 -12 17 -7 -1 -42 -4 -78 -7z"/>
<path d="M5884 4659 c-11 -19 9 -27 84 -31 63 -5 72 -3 72 12 0 13 -12 19 -46 24 -68 9 -102 7 -110 -5z"/>
<path d="M10040 4656 c-28 -7 -46 -18 -48 -29 -4 -19 8 -21 58 -8 19 5 47 12 63 15 15 4 27 13 27 21 0 18 -35 18 -100 1z"/>
<path d="M10316 4657 c-28 -20 -4 -31 50 -22 28 4 44 11 41 18 -5 18 -69 20 -91 4z"/>
<path d="M10672 4653 c-34 -3 -43 -8 -40 -21 3 -15 14 -16 78 -13 70 3 96 13 84 33 -5 8 -39 8 -122 1z"/>
<path d="M6173 4633 c-8 -20 -3 -22 82 -33 53 -7 82 -7 89 0 19 19 -10 31 -89 39 -61 6 -78 4 -82 -6z"/>
<path d="M10160 4626 c-9 -24 -23 -30 -103 -41 -26 -4 -50 -12 -53 -17 -13 -21 14 -25 91 -14 72 10 80 13 83 34 2 13 14 27 28 32 33 13 30 30 -6 30 -23 0 -33 -6 -40 -24z"/>
<path d="M6636 4633 c-17 -18 1 -31 67 -48 39 -11 64 -21 55 -23 -10 -2 -18 -10 -18 -17 0 -13 77 -35 125 -35 37 0 31 27 -7 35 -59 12 -65 15 -64 36 1 17 -8 24 -49 34 -92 23 -102 25 -109 18z"/>
<path d="M8300 4559 c0 -71 2 -80 18 -77 14 3 17 16 20 81 3 72 1 77 -18 77 -18 0 -20 -6 -20 -81z"/>
<path d="M10412 4629 c-80 -8 -87 -11 -79 -33 5 -12 17 -15 54 -10 95 10 113 15 113 29 0 20 -8 22 -88 14z"/>
<path d="M6455 4599 c4 -13 8 -25 9 -26 4 -5 142 -20 149 -16 22 13 0 30 -55 41 -35 6 -74 15 -87 18 -21 6 -23 5 -16 -17z"/>
<path d="M9778 4592 c-53 -14 -72 -32 -50 -46 8 -5 118 20 134 30 11 7 -2 34 -16 33 -6 0 -37 -8 -68 -17z"/>
<path d="M9895 4580 c-3 -6 5 -10 19 -10 14 0 28 5 31 10 3 6 -5 10 -19 10 -14 0 -28 -4 -31 -10z"/>
<path d="M6916 4572 c-17 -16 -1 -33 39 -43 32 -8 45 -16 45 -29 0 -14 13 -21 52 -30 29 -6 63 -13 76 -17 19 -4 23 -2 20 12 -2 11 -18 22 -43 29 -22 7 -38 16 -37 20 2 5 -4 14 -14 19 -28 16 -132 45 -138 39z"/>
<path d="M9540 4531 c-51 -13 -65 -21 -65 -36 0 -13 -10 -21 -32 -27 -23 -6 -31 -13 -27 -23 8 -19 14 -19 95 1 56 14 66 19 62 35 -4 13 2 20 21 25 17 4 26 13 26 25 0 22 4 22 -80 0z"/>
<path d="M9776 4534 c-74 -14 -89 -22 -78 -40 5 -8 29 -7 85 5 61 12 77 19 77 33 0 10 -3 18 -7 17 -5 0 -39 -7 -77 -15z"/>
<path d="M7190 4482 c0 -14 9 -21 29 -25 16 -4 38 -15 48 -25 21 -22 74 -42 110 -42 35 0 24 22 -16 33 -20 5 -35 16 -38 27 -3 12 -19 23 -42 29 -92 24 -91 24 -91 3z"/>
<path d="M9273 4453 c-25 -8 -43 -21 -43 -30 0 -8 -9 -17 -20 -20 -19 -5 -29 -33 -12 -33 33 1 107 29 107 41 0 8 10 15 23 17 14 2 22 10 22 23 0 23 -18 23 -77 2z"/>
<path d="M7460 4403 c0 -11 12 -24 30 -31 17 -8 30 -19 30 -26 0 -14 116 -53 126 -43 9 9 -15 37 -32 37 -8 0 -14 6 -14 14 0 12 -59 43 -117 61 -18 5 -23 2 -23 -12z"/>
<path d="M9048 4382 c-27 -8 -48 -21 -48 -29 0 -7 -16 -19 -35 -27 -25 -11 -33 -19 -29 -31 4 -9 12 -14 18 -12 6 2 38 13 70 23 37 12 61 25 64 36 2 10 13 20 24 24 21 6 19 28 -3 31 -8 1 -35 -6 -61 -15z"/>
<path d="M7712 4303 c2 -10 18 -25 35 -33 18 -8 31 -20 29 -26 -4 -11 74 -54 99 -54 22 0 18 28 -5 35 -11 3 -20 14 -20 24 0 11 -19 28 -49 44 -57 32 -94 35 -89 10z"/>
<path d="M8300 4227 l0 -85 -52 -13 c-29 -6 -72 -20 -95 -30 l-42 -18 -15 24 c-20 31 -103 88 -116 80 -17 -11 -11 -32 15 -49 14 -9 23 -21 20 -26 -3 -5 6 -17 21 -26 20 -14 27 -15 34 -5 5 10 9 10 15 2 3 -7 -15 -35 -43 -66 -60 -66 -89 -122 -103 -204 -15 -85 -4 -159 37 -241 96 -191 312 -267 508 -177 94 44 154 111 195 220 52 142 6 328 -108 431 l-21 19 30 18 c16 10 30 24 30 31 0 6 10 22 21 35 19 19 20 23 6 29 -20 7 -35 -1 -85 -48 l-40 -37 -48 18 c-27 10 -67 22 -89 25 l-40 7 0 82 c0 70 -3 82 -17 85 -16 3 -18 -6 -18 -81z m147 -149 c69 -25 142 -93 184 -170 32 -60 34 -68 34 -163 0 -95 -2 -103 -34 -163 -41 -75 -105 -135 -179 -168 -42 -19 -70 -24 -136 -24 -76 0 -90 3 -154 36 -76 37 -120 82 -163 164 -21 39 -24 59 -24 150 0 92 3 112 26 160 80 171 266 245 446 178z"/>
<path d="M8269 3910 c-136 -41 -165 -229 -47 -307 102 -68 237 -16 269 103 13 44 -11 131 -43 161 -48 45 -118 62 -179 43z"/>
<path d="M8821 4287 c-32 -12 -56 -28 -59 -39 -2 -10 -10 -18 -18 -18 -18 0 -28 -20 -16 -32 14 -14 122 36 122 56 0 9 6 16 14 16 8 0 18 5 22 11 14 23 -13 26 -65 6z"/>
</g>
</svg>