<svg width="21" height="21" viewBox="0 0 21 21" fill="none" xmlns="http://www.w3.org/2000/svg">
<path fill-rule="evenodd" clip-rule="evenodd" d="M18.7676 0.122359C19.025 0.0140167 19.3068 -0.02335 19.5835 0.0141482C19.8603 0.0516464 20.1219 0.162639 20.3412 0.335573C20.5605 0.508507 20.7295 0.737061 20.8305 0.997446C20.9315 1.25783 20.9608 1.54053 20.9155 1.81611L18.553 16.1463C18.3238 17.5286 16.8072 18.3213 15.5395 17.6328C14.4791 17.0567 12.9041 16.1692 11.4874 15.2432C10.7791 14.7797 8.60926 13.2953 8.87593 12.239C9.10509 11.3359 12.7509 7.94215 14.8343 5.92444C15.652 5.13173 15.2791 4.67444 14.3134 5.40361C11.9155 7.21403 8.06551 9.96715 6.79259 10.7422C5.66968 11.4255 5.08426 11.5422 4.38426 11.4255C3.10717 11.213 1.9228 10.8838 0.956133 10.4828C-0.350117 9.94111 -0.286575 8.14528 0.955092 7.62236L18.7676 0.122359Z" fill="#240CFF"/>
</svg>
